<?xml version="1.0" standalone="no"?>
<!DOCTYPE svg PUBLIC "-//W3C//DTD SVG 20010904//EN"
 "http://www.w3.org/TR/2001/REC-SVG-20010904/DTD/svg10.dtd">
<svg version="1.0" xmlns="http://www.w3.org/2000/svg"
 width="640.000000pt" height="640.000000pt" viewBox="0 0 640.000000 640.000000"
 preserveAspectRatio="xMidYMid meet">
<metadata>
Created by potrace 1.14, written by Peter Selinger 2001-2017
</metadata>
<g transform="translate(0.000000,640.000000) scale(0.100000,-0.100000)"
fill="#000000" stroke="none">
<path d="M2220 5205 c-145 -25 -285 -83 -504 -209 l-93 -54 -209 -1 c-198 0
-252 -2 -404 -16 -190 -18 -466 -98 -552 -161 -27 -20 -64 -56 -83 -81 -45
-60 -115 -198 -159 -314 -31 -85 -91 -299 -102 -369 -3 -14 -11 -59 -19 -100
-8 -41 -16 -95 -20 -120 -3 -25 -7 -54 -9 -65 -2 -11 -7 -47 -10 -80 -4 -33
-9 -73 -11 -90 -2 -16 -7 -66 -10 -110 -4 -44 -8 -96 -10 -115 -26 -266 -27
-1299 -1 -1626 5 -70 134 -233 199 -252 18 -6 59 -18 92 -28 80 -24 146 -22
185 6 16 11 45 48 65 81 29 50 34 66 30 106 -37 470 -21 793 51 995 50 141
130 237 259 313 77 45 69 43 195 49 116 6 178 -10 203 -53 9 -15 30 -64 46
-107 31 -86 65 -152 143 -282 l49 -82 -5 -556 -6 -555 73 -34 c185 -84 331
-116 502 -110 153 5 226 18 387 66 l67 21 -4 241 c-3 207 -7 633 -5 661 0 5
10 0 23 -11 59 -54 145 -76 302 -77 79 0 219 9 295 19 72 9 128 17 150 20 38
6 160 14 302 20 180 8 259 32 313 92 11 13 23 23 25 23 3 0 5 -17 6 -38 1 -60
17 -364 28 -557 3 -49 9 -144 12 -210 3 -70 11 -123 17 -127 25 -15 208 -59
299 -72 273 -37 497 13 623 140 94 94 88 40 80 683 -4 311 -7 604 -8 651 0 79
2 91 40 170 22 47 66 138 97 203 31 65 56 123 56 130 0 7 4 17 9 23 20 20 74
224 86 326 10 77 10 236 1 323 -13 122 -62 345 -100 456 l-14 39 102 1 c55 0
221 3 367 5 l267 5 78 -39 c80 -40 143 -64 200 -76 29 -6 38 -1 93 50 89 82
93 93 95 254 1 123 -1 140 -18 159 -29 31 -87 43 -191 37 -91 -5 -94 -6 -173
-56 l-80 -50 -503 1 -504 2 -40 27 c-74 50 -249 147 -360 200 -403 193 -791
266 -1259 236 -138 -8 -385 -43 -511 -72 -15 -3 -29 8 -52 39 -19 25 -53 53
-80 67 -43 21 -63 24 -188 26 -77 1 -174 -4 -215 -11z"/>
</g>
</svg>
